# Blender 4.1.1
# www.blender.org
mtllib Lightning.mtl
o Plane
v -0.422381 0.150248 -0.273754
v 0.334240 0.217802 0.695550
v -0.707801 25.625187 1.572220
v 1.609975 25.456268 -0.005954
v -0.409520 24.629219 1.545259
v -0.142987 23.786034 1.446682
v 0.083665 22.534988 1.324521
v 0.071341 20.856310 1.256104
v -0.311910 19.190332 1.112924
v -0.812161 17.968636 0.853598
v -1.323200 17.167349 0.615886
v -1.710734 16.199823 0.275502
v -1.871820 15.081629 -0.129374
v -1.661268 14.059231 -0.484398
v -1.218351 13.121235 -0.706504
v -0.691989 12.214842 -0.759487
v -0.305540 11.286646 -0.684137
v -0.387761 10.235374 -0.631001
v -1.133573 8.957625 -0.594777
v -2.139064 7.459559 -0.393448
v -2.793444 5.889145 -0.221563
v -2.737498 4.496686 -0.350079
v -2.231783 3.294736 -0.567910
v -1.427898 2.075487 -0.615222
v -0.765292 1.007867 -0.433302
v 0.101843 0.945815 0.553581
v -0.288992 1.951228 0.349106
v -0.808379 3.274334 0.164331
v -1.103814 4.742067 0.120628
v -0.660054 6.236542 0.182557
v 0.256713 7.820740 0.341534
v 1.108744 9.230773 0.675028
v 1.545109 10.431736 0.986887
v 1.559419 11.458666 0.993692
v 1.286331 12.374897 0.733882
v 0.922761 13.221572 0.492731
v 0.627833 14.062139 0.427257
v 0.485468 14.977396 0.533471
v 0.676172 16.052237 0.782405
v 1.283437 17.100912 0.984059
v 2.074290 18.087818 0.946562
v 2.627615 19.281343 0.606434
v 2.806740 20.683582 0.145373
v 2.637880 22.104195 -0.123083
v 2.247356 23.333153 -0.139629
v 1.856112 24.345074 -0.022161
vn 0.5698 0.1306 0.8114
vn -0.7599 -0.1557 0.6312
vn -0.6903 -0.2225 0.6885
vn -0.5453 -0.2404 0.8030
vn -0.3506 -0.1653 0.9218
vn -0.2209 -0.0346 0.9747
vn -0.2614 0.1341 0.9559
vn -0.4123 0.2232 0.8833
vn -0.5730 0.1845 0.7985
vn -0.6573 0.0473 0.7521
vn -0.6298 -0.0849 0.7721
vn -0.5302 -0.1802 0.8285
vn -0.4120 -0.2481 0.8768
vn -0.3140 -0.2736 0.9091
vn -0.2444 -0.2408 0.9393
vn -0.1772 -0.1730 0.9688
vn -0.0831 -0.0510 0.9952
vn 0.0707 0.0025 0.9975
vn 0.2744 0.0492 0.9604
vn 0.4414 0.0800 0.8937
vn 0.5330 0.0969 0.8405
vn 0.5691 0.1069 0.8153
vt 0.000000 0.954545
vt 1.000000 0.954545
vt 1.000000 1.000000
vt 0.000000 1.000000
vt 0.000000 0.000000
vt 1.000000 0.000000
vt 1.000000 0.045455
vt 0.000000 0.045455
vt 1.000000 0.090909
vt 0.000000 0.090909
vt 1.000000 0.136364
vt 0.000000 0.136364
vt 1.000000 0.181818
vt 0.000000 0.181818
vt 1.000000 0.227273
vt 0.000000 0.227273
vt 1.000000 0.272727
vt 0.000000 0.272727
vt 1.000000 0.318182
vt 0.000000 0.318182
vt 1.000000 0.363636
vt 0.000000 0.363636
vt 1.000000 0.409091
vt 0.000000 0.409091
vt 1.000000 0.454545
vt 0.000000 0.454545
vt 1.000000 0.500000
vt 0.000000 0.500000
vt 1.000000 0.545455
vt 0.000000 0.545454
vt 1.000000 0.590909
vt 0.000000 0.590909
vt 1.000000 0.636364
vt 0.000000 0.636364
vt 1.000000 0.681818
vt 0.000000 0.681818
vt 1.000000 0.727273
vt 0.000000 0.727273
vt 1.000000 0.772727
vt 0.000000 0.772727
vt 1.000000 0.818182
vt 0.000000 0.818182
vt 1.000000 0.863636
vt 0.000000 0.863636
vt 1.000000 0.909091
vt 0.000000 0.909091
s 0
f 5/1/1 46/2/1 4/3/1 3/4/1
f 1/5/2 2/6/2 26/7/2 25/8/2
f 25/8/3 26/7/3 27/9/3 24/10/3
f 24/10/4 27/9/4 28/11/4 23/12/4
f 23/12/5 28/11/5 29/13/5 22/14/5
f 22/14/6 29/13/6 30/15/6 21/16/6
f 21/16/7 30/15/7 31/17/7 20/18/7
f 20/18/8 31/17/8 32/19/8 19/20/8
f 19/20/9 32/19/9 33/21/9 18/22/9
f 18/22/10 33/21/10 34/23/10 17/24/10
f 17/24/11 34/23/11 35/25/11 16/26/11
f 16/26/12 35/25/12 36/27/12 15/28/12
f 15/28/13 36/27/13 37/29/13 14/30/13
f 14/30/14 37/29/14 38/31/14 13/32/14
f 13/32/15 38/31/15 39/33/15 12/34/15
f 12/34/16 39/33/16 40/35/16 11/36/16
f 11/36/17 40/35/17 41/37/17 10/38/17
f 10/38/18 41/37/18 42/39/18 9/40/18
f 9/40/19 42/39/19 43/41/19 8/42/19
f 8/42/20 43/41/20 44/43/20 7/44/20
f 7/44/21 44/43/21 45/45/21 6/46/21
f 6/46/22 45/45/22 46/2/22 5/1/22
